<svg xmlns="http://www.w3.org/2000/svg" viewBox="0 0 720 640" width="720" height="640" role="img" aria-label="GPS path shape">
  <rect width="720" height="640" fill="#ffffff"/>
  <line x1="128.6" y1="24" x2="128.6" y2="592" stroke="#e5e7eb" stroke-width="1"/><text x="128.6" y="610" text-anchor="middle" font-size="11" fill="#6b7280" font-family="ui-sans-serif, system-ui, sans-serif">120.302</text><line x1="286.5" y1="24" x2="286.5" y2="592" stroke="#e5e7eb" stroke-width="1"/><text x="286.5" y="610" text-anchor="middle" font-size="11" fill="#6b7280" font-family="ui-sans-serif, system-ui, sans-serif">120.305</text><line x1="444.4" y1="24" x2="444.4" y2="592" stroke="#e5e7eb" stroke-width="1"/><text x="444.4" y="610" text-anchor="middle" font-size="11" fill="#6b7280" font-family="ui-sans-serif, system-ui, sans-serif">120.308</text><line x1="602.4" y1="24" x2="602.4" y2="592" stroke="#e5e7eb" stroke-width="1"/><text x="602.4" y="610" text-anchor="middle" font-size="11" fill="#6b7280" font-family="ui-sans-serif, system-ui, sans-serif">120.311</text><line x1="56" y1="555.9" x2="696" y2="555.9" stroke="#e5e7eb" stroke-width="1"/><text x="48" y="555.9" text-anchor="end" dominant-baseline="middle" font-size="11" fill="#6b7280" font-family="ui-sans-serif, system-ui, sans-serif">22.626</text><line x1="56" y1="477.2" x2="696" y2="477.2" stroke="#e5e7eb" stroke-width="1"/><text x="48" y="477.2" text-anchor="end" dominant-baseline="middle" font-size="11" fill="#6b7280" font-family="ui-sans-serif, system-ui, sans-serif">22.628</text><line x1="56" y1="319.8" x2="696" y2="319.8" stroke="#e5e7eb" stroke-width="1"/><text x="48" y="319.8" text-anchor="end" dominant-baseline="middle" font-size="11" fill="#6b7280" font-family="ui-sans-serif, system-ui, sans-serif">22.632</text><line x1="56" y1="162.4" x2="696" y2="162.4" stroke="#e5e7eb" stroke-width="1"/><text x="48" y="162.4" text-anchor="end" dominant-baseline="middle" font-size="11" fill="#6b7280" font-family="ui-sans-serif, system-ui, sans-serif">22.636</text><line x1="56" y1="83.7" x2="696" y2="83.7" stroke="#e5e7eb" stroke-width="1"/><text x="48" y="83.7" text-anchor="end" dominant-baseline="middle" font-size="11" fill="#6b7280" font-family="ui-sans-serif, system-ui, sans-serif">22.638</text>
  <rect x="56" y="24" width="640" height="568" fill="none" stroke="#d1d5db" stroke-width="1"/>
  <path d="M 96.99,504.71 L 98.25,486.62 L 99.52,468.52 L 100.78,450.42 L 102.04,432.32 L 103.31,414.22 L 104.57,396.13 L 105.83,378.03 L 107.10,359.93 L 108.36,341.83 L 109.62,323.74 L 110.89,305.64 L 112.15,287.54 L 113.41,269.44 L 114.68,251.35 L 115.94,233.25 L 117.20,215.15 L 118.47,197.05 L 119.73,178.96 L 120.99,160.86 L 122.26,142.76 L 123.52,124.66 L 124.78,106.57 L 126.05,88.47 L 127.31,70.37 L 128.57,52.27 L 155.48,53.57 L 182.38,54.91 L 209.28,56.21 L 236.18,57.51 L 263.13,58.84 L 290.03,60.14 L 316.93,61.44 L 343.83,62.78 L 370.74,64.08 L 397.64,65.37 L 424.54,66.71 L 451.44,68.01 L 478.34,69.31 L 505.29,70.65 L 532.19,71.94 L 559.09,73.24 L 586.00,74.58 L 612.90,75.88 L 614.48,93.94 L 616.00,112.03 L 617.58,130.09 L 619.16,148.15 L 620.69,166.21 L 622.27,184.31 L 623.79,202.37 L 625.37,220.42 L 626.95,238.48 L 628.48,256.58 L 630.06,274.64 L 631.64,292.70 L 633.16,310.75 L 634.74,328.85 L 636.27,346.91 L 637.85,364.97 L 639.43,383.03 L 640.96,401.12 L 642.53,419.18 L 644.11,437.24 L 645.64,455.30 L 647.22,473.40 L 648.75,491.45 L 650.33,509.51 L 651.91,527.57 L 653.43,545.67 L 655.01,563.73 L 628.43,560.93 L 601.84,558.10 L 575.31,555.31 L 548.72,552.47 L 522.14,549.68 L 495.55,546.85 L 469.02,544.06 L 442.44,541.26 L 415.85,538.43 L 389.27,535.64 L 362.73,532.80 L 336.15,530.01 L 309.56,527.18 L 282.98,524.38 L 256.45,521.59 L 229.86,518.76 L 203.28,515.96 L 176.69,513.13 L 150.16,510.34 L 123.57,507.51" fill="none" stroke="#ea580c" stroke-width="2.5" stroke-linejoin="round" stroke-linecap="round"/>
  <line x1="96.99" y1="504.71" x2="123.57" y2="507.51" stroke="#2563eb" stroke-width="2" stroke-dasharray="6 4"/>
  <circle cx="96.99" cy="504.71" r="5" fill="#ea580c"/>
  <circle cx="123.57" cy="507.51" r="5" fill="#2563eb"/>
  <text x="107.0" y="496.7" font-size="13" fill="#ea580c" font-family="ui-sans-serif, system-ui, sans-serif" font-weight="500">Start</text>
  <text x="133.6" y="523.5" font-size="13" fill="#2563eb" font-family="ui-sans-serif, system-ui, sans-serif" font-weight="500">End</text>
  <text x="376.0" y="632" text-anchor="middle" font-size="12" fill="#6b7280" font-family="ui-sans-serif, system-ui, sans-serif">Longitude</text>
  <text x="16" y="308.0" text-anchor="middle" font-size="12" fill="#6b7280" font-family="ui-sans-serif, system-ui, sans-serif" transform="rotate(-90 16 308.0)">Latitude</text>
</svg>
